<?xml version="1.0" encoding="UTF-8" standalone="no"?>
<!-- Created with Inkscape (http://www.inkscape.org/) -->
<svg
   xmlns:dc="http://purl.org/dc/elements/1.1/"
   xmlns:cc="http://web.resource.org/cc/"
   xmlns:rdf="http://www.w3.org/1999/02/22-rdf-syntax-ns#"
   xmlns:svg="http://www.w3.org/2000/svg"
   xmlns="http://www.w3.org/2000/svg"
   xmlns:sodipodi="http://sodipodi.sourceforge.net/DTD/sodipodi-0.dtd"
   xmlns:inkscape="http://www.inkscape.org/namespaces/inkscape"
   width="744.09448819"
   height="1052.3622047"
   id="svg2232"
   sodipodi:version="0.32"
   inkscape:version="0.44.1"
   sodipodi:docbase="/home/kubo/public_html/stat/iwanami/fig"
   sodipodi:docname="flower.svg">
  <defs
     id="defs2234" />
  <sodipodi:namedview
     id="base"
     pagecolor="#ffffff"
     bordercolor="#666666"
     borderopacity="1.0"
     gridtolerance="10000"
     guidetolerance="10"
     objecttolerance="10"
     inkscape:pageopacity="0.0"
     inkscape:pageshadow="2"
     inkscape:zoom="0.35"
     inkscape:cx="375"
     inkscape:cy="520"
     inkscape:document-units="px"
     inkscape:current-layer="layer1"
     inkscape:window-width="836"
     inkscape:window-height="610"
     inkscape:window-x="89"
     inkscape:window-y="25" />
  <metadata
     id="metadata2237">
    <rdf:RDF>
      <cc:Work
         rdf:about="">
        <dc:format>image/svg+xml</dc:format>
        <dc:type
           rdf:resource="http://purl.org/dc/dcmitype/StillImage" />
      </cc:Work>
    </rdf:RDF>
  </metadata>
  <g
     inkscape:label="Layer 1"
     inkscape:groupmode="layer"
     id="layer1">
    <path
       style="fill:#e0e0e0;fill-opacity:1;fill-rule:evenodd;stroke:black;stroke-width:2;stroke-linecap:butt;stroke-linejoin:miter;stroke-miterlimit:4;stroke-dasharray:none;stroke-opacity:1"
       d="M 329.99998,530.93361 L 229.99998,650.93361 L 409.99998,650.93361 L 509.99998,530.93361 L 329.99998,530.93361 z "
       id="path3690" />
    <g
       id="g4577"
       transform="translate(313.5349,176.0857)">
      <path
         id="path2770"
         d="M 200.04573,153.00506 C 160.511,198.4969 163.57835,290.33088 163.57835,290.33088"
         style="fill:none;fill-rule:evenodd;stroke:black;stroke-width:1.9999994;stroke-linecap:butt;stroke-linejoin:miter;stroke-miterlimit:4;stroke-dasharray:none;stroke-opacity:1" />
      <g
         transform="matrix(0.784935,0,0,0.657852,-7.77983,40.26623)"
         id="g2764">
        <path
           sodipodi:type="arc"
           style="opacity:1;fill:gray;fill-opacity:1;fill-rule:evenodd;stroke:none;stroke-width:1.89999998;stroke-linecap:round;stroke-linejoin:round;stroke-miterlimit:4;stroke-dasharray:none;stroke-dashoffset:0;stroke-opacity:1"
           id="path1872"
           sodipodi:cx="265.35724"
           sodipodi:cy="164.13849"
           sodipodi:rx="57.448471"
           sodipodi:ry="21.885132"
           d="M 322.80571 164.13849 A 57.448471 21.885132 0 1 1  207.90877,164.13849 A 57.448471 21.885132 0 1 1  322.80571 164.13849 z" />
        <path
           d="M 322.80571 164.13849 A 57.448471 21.885132 0 1 1  207.90877,164.13849 A 57.448471 21.885132 0 1 1  322.80571 164.13849 z"
           sodipodi:ry="21.885132"
           sodipodi:rx="57.448471"
           sodipodi:cy="164.13849"
           sodipodi:cx="265.35724"
           id="path2762"
           style="opacity:1;fill:#ddd;fill-opacity:1;fill-rule:evenodd;stroke:none;stroke-width:1.89999998;stroke-linecap:round;stroke-linejoin:round;stroke-miterlimit:4;stroke-dasharray:none;stroke-dashoffset:0;stroke-opacity:1"
           sodipodi:type="arc"
           transform="matrix(0.449304,0,0,0.332811,146.1312,109.5114)" />
      </g>
      <path
         sodipodi:nodetypes="ccss"
         id="path2772"
         d="M 257.4642,260.14796 C 194.98126,242.28594 171.75354,272.05238 166.36175,277.83196 C 166.36175,277.83196 165.56209,278.35847 165.78025,278.45797 C 214.26747,300.57191 257.69763,260.21469 257.4642,260.14796 z "
         style="fill:gray;fill-opacity:1;fill-rule:evenodd;stroke:none;stroke-width:1px;stroke-linecap:butt;stroke-linejoin:miter;stroke-opacity:1" />
      <path
         style="fill:#a0a0a0;fill-opacity:1;fill-rule:evenodd;stroke:none;stroke-width:1px;stroke-linecap:butt;stroke-linejoin:miter;stroke-opacity:1"
         d="M 240.24206,246.42267 C 189.49124,231.62322 170.62488,256.28599 166.24548,261.07461 C 166.24548,261.07461 165.59597,261.51085 165.77317,261.59329 C 205.15617,279.91563 240.43166,246.47796 240.24206,246.42267 z "
         id="path3662"
         sodipodi:nodetypes="ccss" />
      <path
         sodipodi:nodetypes="ccss"
         id="path3664"
         d="M 222.02476,232.69738 C 185.04644,220.96051 171.29994,240.5196 168.10899,244.31727 C 168.10899,244.31727 167.63575,244.66323 167.76486,244.72861 C 196.4603,259.25935 222.16291,232.74123 222.02476,232.69738 z "
         style="fill:#b0b0b0;fill-opacity:1;fill-rule:evenodd;stroke:none;stroke-width:1px;stroke-linecap:butt;stroke-linejoin:miter;stroke-opacity:1" />
      <path
         style="fill:gray;fill-opacity:1;fill-rule:evenodd;stroke:none;stroke-width:1px;stroke-linecap:butt;stroke-linejoin:miter;stroke-opacity:1"
         d="M 85.970466,255.16396 C 138.76165,239.46273 158.38651,265.62829 162.94198,270.70871 C 162.94198,270.70871 163.6176,271.17153 163.43328,271.25899 C 122.46693,290.69778 85.773243,255.22262 85.970466,255.16396 z "
         id="path3666"
         sodipodi:nodetypes="ccss" />
      <path
         sodipodi:nodetypes="ccss"
         id="path3668"
         d="M 100.52127,243.09904 C 143.40011,230.08989 159.3401,251.76918 163.04021,255.97852 C 163.04021,255.97852 163.58898,256.36198 163.43926,256.43445 C 130.16497,272.54032 100.36108,243.14764 100.52127,243.09904 z "
         style="fill:#a0a0a0;fill-opacity:1;fill-rule:evenodd;stroke:none;stroke-width:1px;stroke-linecap:butt;stroke-linejoin:miter;stroke-opacity:1" />
    </g>
  </g>
</svg>
