<?xml version="1.0" encoding="UTF-8" standalone="no"?>
<!-- Created with Inkscape (http://www.inkscape.org/) -->
<svg
   xmlns:dc="http://purl.org/dc/elements/1.1/"
   xmlns:cc="http://web.resource.org/cc/"
   xmlns:rdf="http://www.w3.org/1999/02/22-rdf-syntax-ns#"
   xmlns:svg="http://www.w3.org/2000/svg"
   xmlns="http://www.w3.org/2000/svg"
   xmlns:sodipodi="http://sodipodi.sourceforge.net/DTD/sodipodi-0.dtd"
   xmlns:inkscape="http://www.inkscape.org/namespaces/inkscape"
   width="269.29132"
   height="297.63779"
   id="svg2232"
   sodipodi:version="0.32"
   inkscape:version="0.44.1"
   sodipodi:docbase="/home/kubo/public_html/stat/iwanami/fig/flower"
   sodipodi:docname="flower.svg"
   version="1.0">
  <defs
     id="defs2234">
    <linearGradient
       id="linearGradient10067">
      <stop
         style="stop-color:black;stop-opacity:0.25098041;"
         offset="0"
         id="stop10069" />
      <stop
         style="stop-color:black;stop-opacity:0;"
         offset="1"
         id="stop10071" />
    </linearGradient>
    <marker
       inkscape:stockid="Arrow1Mend"
       orient="auto"
       refY="0"
       refX="0"
       id="Arrow1Mend"
       style="overflow:visible">
      <path
         id="path2932"
         d="M 0,0 L 5,-5 L -12.5,0 L 5,5 L 0,0 z "
         style="fill-rule:evenodd;stroke:black;stroke-width:1pt;marker-start:none"
         transform="matrix(-0.4,0,0,-0.4,-4,0)" />
    </marker>
    <marker
       inkscape:stockid="Arrow1Lend"
       orient="auto"
       refY="0"
       refX="0"
       id="Arrow1Lend"
       style="overflow:visible">
      <path
         id="path2938"
         d="M 0,0 L 5,-5 L -12.5,0 L 5,5 L 0,0 z "
         style="fill-rule:evenodd;stroke:black;stroke-width:1pt;marker-start:none"
         transform="matrix(-0.8,0,0,-0.8,-10,0)" />
    </marker>
  </defs>
  <sodipodi:namedview
     id="base"
     pagecolor="#ffffff"
     bordercolor="#666666"
     borderopacity="1.0"
     gridtolerance="10000"
     guidetolerance="10"
     objecttolerance="10"
     inkscape:pageopacity="0.0"
     inkscape:pageshadow="2"
     inkscape:zoom="1.3775133"
     inkscape:cx="134.64566"
     inkscape:cy="148.81889"
     inkscape:document-units="px"
     inkscape:current-layer="layer4"
     inkscape:window-width="836"
     inkscape:window-height="610"
     inkscape:window-x="29"
     inkscape:window-y="67"
     width="76mm"
     height="84mm"
     units="mm" />
  <metadata
     id="metadata2237">
    <rdf:RDF>
      <cc:Work
         rdf:about="">
        <dc:format>image/svg+xml</dc:format>
        <dc:type
           rdf:resource="http://purl.org/dc/dcmitype/StillImage" />
      </cc:Work>
    </rdf:RDF>
  </metadata>
  <g
     inkscape:label="Layer 1"
     inkscape:groupmode="layer"
     id="layer1"
     style="opacity:1;display:inline">
    <path
       id="path1880"
       style="fill:silver;fill-opacity:1;fill-rule:evenodd;stroke:none;stroke-width:1;stroke-linecap:butt;stroke-linejoin:miter;marker-end:none;stroke-miterlimit:4;stroke-dashoffset:0;stroke-opacity:1"
       d="M 117.87331,159.93543 C 121.54778,122.1983 143.01382,79.713808 166.81427,74.411895 L 155.35208,62.282865 L 182.16819,73.055163 L 166.10689,98.388672 L 168.5732,80.042925 C 144.77274,85.344831 121.54778,122.1983 117.87331,159.93543"
       sodipodi:nodetypes="ccccccc" />
    <g
       id="g4577"
       transform="translate(-80.54771,5.774246)">
      <path
         id="path2770"
         d="M 200.04573,153.00506 C 160.511,198.4969 163.57835,290.33088 163.57835,290.33088"
         style="fill:none;fill-rule:evenodd;stroke:black;stroke-width:1.9999994;stroke-linecap:butt;stroke-linejoin:miter;stroke-miterlimit:4;stroke-dasharray:none;stroke-opacity:1" />
      <g
         transform="matrix(0.784935,0,0,0.657852,-7.77983,40.26623)"
         id="g2764">
        <path
           sodipodi:type="arc"
           style="opacity:1;fill:gray;fill-opacity:1;fill-rule:evenodd;stroke:none;stroke-width:1.89999998;stroke-linecap:round;stroke-linejoin:round;stroke-miterlimit:4;stroke-dasharray:none;stroke-dashoffset:0;stroke-opacity:1"
           id="path1872"
           sodipodi:cx="265.35724"
           sodipodi:cy="164.13849"
           sodipodi:rx="57.448471"
           sodipodi:ry="21.885132"
           d="M 322.80571 164.13849 A 57.448471 21.885132 0 1 1  207.90877,164.13849 A 57.448471 21.885132 0 1 1  322.80571 164.13849 z" />
        <path
           d="M 322.80571 164.13849 A 57.448471 21.885132 0 1 1  207.90877,164.13849 A 57.448471 21.885132 0 1 1  322.80571 164.13849 z"
           sodipodi:ry="21.885132"
           sodipodi:rx="57.448471"
           sodipodi:cy="164.13849"
           sodipodi:cx="265.35724"
           id="path2762"
           style="opacity:1;fill:#ddd;fill-opacity:1;fill-rule:evenodd;stroke:none;stroke-width:1.89999998;stroke-linecap:round;stroke-linejoin:round;stroke-miterlimit:4;stroke-dasharray:none;stroke-dashoffset:0;stroke-opacity:1"
           sodipodi:type="arc"
           transform="matrix(0.449304,0,0,0.332811,146.1312,109.5114)" />
      </g>
      <path
         sodipodi:nodetypes="ccss"
         id="path2772"
         d="M 257.4642,260.14796 C 194.98126,242.28594 171.75354,272.05238 166.36175,277.83196 C 166.36175,277.83196 165.56209,278.35847 165.78025,278.45797 C 214.26747,300.57191 257.69763,260.21469 257.4642,260.14796 z "
         style="fill:gray;fill-opacity:1;fill-rule:evenodd;stroke:none;stroke-width:1px;stroke-linecap:butt;stroke-linejoin:miter;stroke-opacity:1" />
      <path
         style="fill:#a0a0a0;fill-opacity:1;fill-rule:evenodd;stroke:none;stroke-width:1px;stroke-linecap:butt;stroke-linejoin:miter;stroke-opacity:1"
         d="M 240.24206,246.42267 C 189.49124,231.62322 170.62488,256.28599 166.24548,261.07461 C 166.24548,261.07461 165.59597,261.51085 165.77317,261.59329 C 205.15617,279.91563 240.43166,246.47796 240.24206,246.42267 z "
         id="path3662"
         sodipodi:nodetypes="ccss" />
      <path
         sodipodi:nodetypes="ccss"
         id="path3664"
         d="M 222.02476,232.69738 C 185.04644,220.96051 171.29994,240.5196 168.10899,244.31727 C 168.10899,244.31727 167.63575,244.66323 167.76486,244.72861 C 196.4603,259.25935 222.16291,232.74123 222.02476,232.69738 z "
         style="fill:#b0b0b0;fill-opacity:1;fill-rule:evenodd;stroke:none;stroke-width:1px;stroke-linecap:butt;stroke-linejoin:miter;stroke-opacity:1" />
      <path
         style="fill:gray;fill-opacity:1;fill-rule:evenodd;stroke:none;stroke-width:1px;stroke-linecap:butt;stroke-linejoin:miter;stroke-opacity:1"
         d="M 85.970466,255.16396 C 138.76165,239.46273 158.38651,265.62829 162.94198,270.70871 C 162.94198,270.70871 163.6176,271.17153 163.43328,271.25899 C 122.46693,290.69778 85.773243,255.22262 85.970466,255.16396 z "
         id="path3666"
         sodipodi:nodetypes="ccss" />
      <path
         sodipodi:nodetypes="ccss"
         id="path3668"
         d="M 100.52127,243.09904 C 143.40011,230.08989 159.3401,251.76918 163.04021,255.97852 C 163.04021,255.97852 163.58898,256.36198 163.43926,256.43445 C 130.16497,272.54032 100.36108,243.14764 100.52127,243.09904 z "
         style="fill:#a0a0a0;fill-opacity:1;fill-rule:evenodd;stroke:none;stroke-width:1px;stroke-linecap:butt;stroke-linejoin:miter;stroke-opacity:1" />
    </g>
  </g>
  <g
     inkscape:groupmode="layer"
     id="layer3"
     inkscape:label="seedP"
     style="display:none">
    <g
       style="opacity:1;display:inline"
       id="g1908"
       transform="translate(0.160012,-0.923165)">
      <path
         transform="translate(70.39168,27.58096)"
         d="M 129.50751 35.353909 A 5.2401881 5.2401881 0 1 1  119.02713,35.353909 A 5.2401881 5.2401881 0 1 1  129.50751 35.353909 z"
         sodipodi:ry="5.2401881"
         sodipodi:rx="5.2401881"
         sodipodi:cy="35.353909"
         sodipodi:cx="124.26732"
         id="path1910"
         style="opacity:1;fill:black;fill-opacity:1;fill-rule:evenodd;stroke:none;stroke-width:1;stroke-linecap:round;stroke-linejoin:miter;stroke-miterlimit:4;stroke-dasharray:none;stroke-dashoffset:0;stroke-opacity:1"
         sodipodi:type="arc" />
      <path
         sodipodi:type="arc"
         style="opacity:1;fill:black;fill-opacity:1;fill-rule:evenodd;stroke:none;stroke-width:1;stroke-linecap:round;stroke-linejoin:miter;stroke-miterlimit:4;stroke-dasharray:none;stroke-dashoffset:0;stroke-opacity:1"
         id="path1912"
         sodipodi:cx="124.26732"
         sodipodi:cy="35.353909"
         sodipodi:rx="5.2401881"
         sodipodi:ry="5.2401881"
         d="M 129.50751 35.353909 A 5.2401881 5.2401881 0 1 1  119.02713,35.353909 A 5.2401881 5.2401881 0 1 1  129.50751 35.353909 z"
         transform="translate(78.62626,46.29592)" />
      <path
         sodipodi:type="arc"
         style="opacity:1;fill:black;fill-opacity:1;fill-rule:evenodd;stroke:none;stroke-width:1;stroke-linecap:round;stroke-linejoin:miter;stroke-miterlimit:4;stroke-dasharray:none;stroke-dashoffset:0;stroke-opacity:1"
         id="path1914"
         sodipodi:cx="124.26732"
         sodipodi:cy="35.353909"
         sodipodi:rx="5.2401881"
         sodipodi:ry="5.2401881"
         d="M 129.50751 35.353909 A 5.2401881 5.2401881 0 1 1  119.02713,35.353909 A 5.2401881 5.2401881 0 1 1  129.50751 35.353909 z"
         transform="translate(94.34683,12.60899)" />
      <path
         transform="translate(98.08981,36.56414)"
         d="M 129.50751 35.353909 A 5.2401881 5.2401881 0 1 1  119.02713,35.353909 A 5.2401881 5.2401881 0 1 1  129.50751 35.353909 z"
         sodipodi:ry="5.2401881"
         sodipodi:rx="5.2401881"
         sodipodi:cy="35.353909"
         sodipodi:cx="124.26732"
         id="path1916"
         style="opacity:1;fill:black;fill-opacity:1;fill-rule:evenodd;stroke:none;stroke-width:1;stroke-linecap:round;stroke-linejoin:miter;stroke-miterlimit:4;stroke-dasharray:none;stroke-dashoffset:0;stroke-opacity:1"
         sodipodi:type="arc" />
      <path
         transform="translate(108.5702,21.59217)"
         d="M 129.50751 35.353909 A 5.2401881 5.2401881 0 1 1  119.02713,35.353909 A 5.2401881 5.2401881 0 1 1  129.50751 35.353909 z"
         sodipodi:ry="5.2401881"
         sodipodi:rx="5.2401881"
         sodipodi:cy="35.353909"
         sodipodi:cx="124.26732"
         id="path1918"
         style="opacity:1;fill:black;fill-opacity:1;fill-rule:evenodd;stroke:none;stroke-width:1;stroke-linecap:round;stroke-linejoin:miter;stroke-miterlimit:4;stroke-dasharray:none;stroke-dashoffset:0;stroke-opacity:1"
         sodipodi:type="arc" />
      <path
         sodipodi:type="arc"
         style="opacity:1;fill:black;fill-opacity:1;fill-rule:evenodd;stroke:none;stroke-width:1;stroke-linecap:round;stroke-linejoin:miter;stroke-miterlimit:4;stroke-dasharray:none;stroke-dashoffset:0;stroke-opacity:1"
         id="path1920"
         sodipodi:cx="124.26732"
         sodipodi:cy="35.353909"
         sodipodi:rx="5.2401881"
         sodipodi:ry="5.2401881"
         d="M 129.50751 35.353909 A 5.2401881 5.2401881 0 1 1  119.02713,35.353909 A 5.2401881 5.2401881 0 1 1  129.50751 35.353909 z"
         transform="translate(113.0617,38.80993)" />
      <path
         sodipodi:type="arc"
         style="opacity:1;fill:black;fill-opacity:1;fill-rule:evenodd;stroke:none;stroke-width:1;stroke-linecap:round;stroke-linejoin:miter;stroke-miterlimit:4;stroke-dasharray:none;stroke-dashoffset:0;stroke-opacity:1"
         id="path1922"
         sodipodi:cx="124.26732"
         sodipodi:cy="35.353909"
         sodipodi:rx="5.2401881"
         sodipodi:ry="5.2401881"
         d="M 129.50751 35.353909 A 5.2401881 5.2401881 0 1 1  119.02713,35.353909 A 5.2401881 5.2401881 0 1 1  129.50751 35.353909 z"
         transform="translate(76.38051,13.35759)" />
      <path
         transform="translate(86.1122,27.58096)"
         d="M 129.50751 35.353909 A 5.2401881 5.2401881 0 1 1  119.02713,35.353909 A 5.2401881 5.2401881 0 1 1  129.50751 35.353909 z"
         sodipodi:ry="5.2401881"
         sodipodi:rx="5.2401881"
         sodipodi:cy="35.353909"
         sodipodi:cx="124.26732"
         id="path1924"
         style="opacity:1;fill:black;fill-opacity:1;fill-rule:evenodd;stroke:none;stroke-width:1;stroke-linecap:round;stroke-linejoin:miter;stroke-miterlimit:4;stroke-dasharray:none;stroke-dashoffset:0;stroke-opacity:1"
         sodipodi:type="arc" />
    </g>
  </g>
  <g
     inkscape:groupmode="layer"
     id="layer4"
     inkscape:label="seedB">
    <path
       sodipodi:type="arc"
       style="opacity:1;fill:black;fill-opacity:1;fill-rule:evenodd;stroke:none;stroke-width:1;stroke-linecap:round;stroke-linejoin:miter;stroke-miterlimit:4;stroke-dasharray:none;stroke-dashoffset:0;stroke-opacity:1"
       id="path7383"
       sodipodi:cx="124.26732"
       sodipodi:cy="35.353909"
       sodipodi:rx="5.2401881"
       sodipodi:ry="5.2401881"
       d="M 129.50751 35.353909 A 5.2401881 5.2401881 0 1 1  119.02713,35.353909 A 5.2401881 5.2401881 0 1 1  129.50751 35.353909 z"
       transform="translate(70.00359,25.12613)" />
    <path
       transform="translate(104.7418,25.12613)"
       d="M 129.50751 35.353909 A 5.2401881 5.2401881 0 1 1  119.02713,35.353909 A 5.2401881 5.2401881 0 1 1  129.50751 35.353909 z"
       sodipodi:ry="5.2401881"
       sodipodi:rx="5.2401881"
       sodipodi:cy="35.353909"
       sodipodi:cx="124.26732"
       id="path8270"
       style="opacity:1;fill:black;fill-opacity:1;fill-rule:evenodd;stroke:none;stroke-width:1;stroke-linecap:round;stroke-linejoin:miter;stroke-miterlimit:4;stroke-dasharray:none;stroke-dashoffset:0;stroke-opacity:1"
       sodipodi:type="arc" />
    <path
       sodipodi:type="arc"
       style="opacity:1;fill:none;fill-opacity:1;fill-rule:evenodd;stroke:black;stroke-width:1;stroke-linecap:round;stroke-linejoin:miter;stroke-miterlimit:4;stroke-dasharray:none;stroke-dashoffset:0;stroke-opacity:1"
       id="path8274"
       sodipodi:cx="124.26732"
       sodipodi:cy="35.353909"
       sodipodi:rx="5.2401881"
       sodipodi:ry="5.2401881"
       d="M 129.50751 35.353909 A 5.2401881 5.2401881 0 1 1  119.02713,35.353909 A 5.2401881 5.2401881 0 1 1  129.50751 35.353909 z"
       transform="translate(87.37269,25.12613)" />
    <path
       transform="translate(122.1109,25.12613)"
       d="M 129.50751 35.353909 A 5.2401881 5.2401881 0 1 1  119.02713,35.353909 A 5.2401881 5.2401881 0 1 1  129.50751 35.353909 z"
       sodipodi:ry="5.2401881"
       sodipodi:rx="5.2401881"
       sodipodi:cy="35.353909"
       sodipodi:cx="124.26732"
       id="path8278"
       style="opacity:1;fill:none;fill-opacity:1;fill-rule:evenodd;stroke:black;stroke-width:1;stroke-linecap:round;stroke-linejoin:miter;stroke-miterlimit:4;stroke-dasharray:none;stroke-dashoffset:0;stroke-opacity:1"
       sodipodi:type="arc" />
    <path
       sodipodi:type="arc"
       style="opacity:1;fill:none;fill-opacity:1;fill-rule:evenodd;stroke:black;stroke-width:1;stroke-linecap:round;stroke-linejoin:miter;stroke-miterlimit:4;stroke-dasharray:none;stroke-dashoffset:0;stroke-opacity:1"
       id="path1944"
       sodipodi:cx="124.26732"
       sodipodi:cy="35.353909"
       sodipodi:rx="5.2401881"
       sodipodi:ry="5.2401881"
       d="M 129.50751 35.353909 A 5.2401881 5.2401881 0 1 1  119.02713,35.353909 A 5.2401881 5.2401881 0 1 1  129.50751 35.353909 z"
       transform="translate(70.36655,41.59638)" />
    <path
       transform="translate(105.1048,41.59638)"
       d="M 129.50751 35.353909 A 5.2401881 5.2401881 0 1 1  119.02713,35.353909 A 5.2401881 5.2401881 0 1 1  129.50751 35.353909 z"
       sodipodi:ry="5.2401881"
       sodipodi:rx="5.2401881"
       sodipodi:cy="35.353909"
       sodipodi:cx="124.26732"
       id="path1946"
       style="opacity:1;fill:none;fill-opacity:1;fill-rule:evenodd;stroke:black;stroke-width:1;stroke-linecap:round;stroke-linejoin:miter;stroke-miterlimit:4;stroke-dasharray:none;stroke-dashoffset:0;stroke-opacity:1"
       sodipodi:type="arc" />
    <path
       sodipodi:type="arc"
       style="opacity:1;fill:black;fill-opacity:1;fill-rule:evenodd;stroke:none;stroke-width:1;stroke-linecap:round;stroke-linejoin:miter;stroke-miterlimit:4;stroke-dasharray:none;stroke-dashoffset:0;stroke-opacity:1"
       id="path1948"
       sodipodi:cx="124.26732"
       sodipodi:cy="35.353909"
       sodipodi:rx="5.2401881"
       sodipodi:ry="5.2401881"
       d="M 129.50751 35.353909 A 5.2401881 5.2401881 0 1 1  119.02713,35.353909 A 5.2401881 5.2401881 0 1 1  129.50751 35.353909 z"
       transform="translate(87.73565,41.59638)" />
    <path
       transform="translate(122.4739,41.59638)"
       d="M 129.50751 35.353909 A 5.2401881 5.2401881 0 1 1  119.02713,35.353909 A 5.2401881 5.2401881 0 1 1  129.50751 35.353909 z"
       sodipodi:ry="5.2401881"
       sodipodi:rx="5.2401881"
       sodipodi:cy="35.353909"
       sodipodi:cx="124.26732"
       id="path1950"
       style="opacity:1;fill:none;fill-opacity:1;fill-rule:evenodd;stroke:black;stroke-width:1;stroke-linecap:round;stroke-linejoin:miter;stroke-miterlimit:4;stroke-dasharray:none;stroke-dashoffset:0;stroke-opacity:1"
       sodipodi:type="arc" />
  </g>
  <g
     inkscape:groupmode="layer"
     id="layer2"
     inkscape:label="f"
     style="opacity:1;display:inline">
    <path
       style="opacity:1;fill:none;fill-opacity:1;fill-rule:evenodd;stroke:black;stroke-width:1;stroke-linecap:butt;stroke-linejoin:miter;stroke-miterlimit:4;stroke-dasharray:1, 1;stroke-dashoffset:0;stroke-opacity:1;display:inline"
       d="M 62.881619,235.67362 L 74.406199,176.97529 L 48.883649,195.34587 L 30.057069,166.50035 L 20.602489,173.87765 L 10.300929,180.01697 L 30.365499,208.01549 L 3.9959493,225.14809 L 62.881619,235.67362 z "
       id="path1905" />
  </g>
</svg>
