<?xml version="1.0" encoding="UTF-8" standalone="no"?>
<!-- Created with Inkscape (http://www.inkscape.org/) -->
<svg
   xmlns:dc="http://purl.org/dc/elements/1.1/"
   xmlns:cc="http://creativecommons.org/ns#"
   xmlns:rdf="http://www.w3.org/1999/02/22-rdf-syntax-ns#"
   xmlns:svg="http://www.w3.org/2000/svg"
   xmlns="http://www.w3.org/2000/svg"
   xmlns:sodipodi="http://sodipodi.sourceforge.net/DTD/sodipodi-0.dtd"
   xmlns:inkscape="http://www.inkscape.org/namespaces/inkscape"
   width="200"
   height="200"
   id="svg2"
   sodipodi:version="0.32"
   inkscape:version="0.46"
   version="1.0"
   sodipodi:docname="estimate.svg"
   inkscape:output_extension="org.inkscape.output.svg.inkscape">
  <sodipodi:namedview
     id="base"
     pagecolor="#ffffff"
     bordercolor="#666666"
     borderopacity="1.0"
     gridtolerance="10000"
     guidetolerance="10"
     objecttolerance="10"
     inkscape:pageopacity="0.0"
     inkscape:pageshadow="2"
     inkscape:zoom="2.445"
     inkscape:cx="100"
     inkscape:cy="100"
     inkscape:document-units="px"
     inkscape:current-layer="layer1"
     showgrid="false"
     inkscape:window-width="1024"
     inkscape:window-height="716"
     inkscape:window-x="0"
     inkscape:window-y="0"
     inkscape:snap-global="false">
    <inkscape:grid
       type="xygrid"
       id="grid3597"
       visible="true"
       enabled="true" />
  </sodipodi:namedview>
  <defs
     id="defs4">
    <inkscape:perspective
       id="perspective10"
       inkscape:persp3d-origin="372.04724 : 350.78739 : 1"
       inkscape:vp_z="744.09448 : 526.18109 : 1"
       inkscape:vp_y="0 : 1000 : 0"
       inkscape:vp_x="0 : 526.18109 : 1"
       sodipodi:type="inkscape:persp3d" />
  </defs>
  <metadata
     id="metadata7">
    <rdf:RDF>
      <cc:Work
         rdf:about="">
        <dc:format>image/svg+xml</dc:format>
        <dc:type
           rdf:resource="http://purl.org/dc/dcmitype/StillImage" />
      </cc:Work>
    </rdf:RDF>
  </metadata>
  <g
     id="layer1"
     inkscape:groupmode="layer"
     inkscape:label="Layer 1">
    <path
       id="path2383"
       d="M 100.99186,42.936725 L 100.99186,12.94042"
       style="fill:none;fill-opacity:1;fill-rule:evenodd;stroke:#000000;stroke-width:5;stroke-linecap:round;stroke-linejoin:miter;stroke-miterlimit:4;stroke-dasharray:none;stroke-dashoffset:0;stroke-opacity:1" />
    <path
       id="path3580"
       title="sin(x)"
       d="M 99.5,186.3895 C 101.08664,186.3895 102.67302,184.95516 104.18045,184.95516 C 105.68788,184.95516 107.11584,183.52081 108.39352,183.52081 C 109.6712,183.52081 110.79816,182.08648 111.7185,182.08648 C 112.63885,182.08648 113.35227,180.65214 113.82337,180.65214 C 114.29448,180.65214 114.52312,179.2178 114.49795,179.2178 C 114.47277,179.2178 114.19379,177.78346 113.67486,177.78346 C 113.15591,177.78346 112.39718,176.34911 111.43629,176.34911 C 110.4754,176.34911 109.31269,174.91476 108.0058,174.91476 C 106.69892,174.91476 105.24831,173.48043 103.72594,173.48043 C 102.20356,173.48043 100.60993,172.04608 99.02409,172.04608 C 97.43823,172.04608 95.86071,170.61174 94.36975,170.61174 C 92.87879,170.61174 91.474897,169.17739 90.227708,169.17739 C 88.980526,169.17739 87.890459,167.74304 87.011583,167.74304 C 86.132707,167.74304 85.465324,166.30871 85.042518,166.30871 C 84.619727,166.30871 84.441656,164.87436 84.517149,164.87436 C 84.592648,164.87436 84.921676,163.44002 85.487931,163.44002 C 86.054179,163.44002 86.857462,162.00567 87.85793,162.00567 C 88.858391,162.00567 90.055701,160.57133 91.390468,160.57133 C 92.72524,160.57133 94.19702,159.13698 95.73282,159.13698 C 97.26861,159.13698 98.86789,157.70264 100.45134,157.70264 C 102.0348,157.70264 103.60188,156.2683 105.07487,156.2683 C 106.54786,156.2683 107.92626,154.83395 109.1417,154.83395 C 110.35715,154.83395 111.40921,153.39961 112.24574,153.39961 C 113.08226,153.39961 113.70294,151.96526 114.07701,151.96526 C 114.45108,151.96526 114.5784,150.53093 114.45265,150.53093 C 114.32691,150.53093 113.94815,149.09658 113.33516,149.09658 C 112.72217,149.09658 111.87515,147.66224 110.83612,147.66224 C 109.79708,147.66224 108.56639,146.22789 107.20507,146.22789 C 105.84376,146.22789 104.35228,144.79354 102.80462,144.79354 C 101.25696,144.79354 99.65363,143.35921 98.07417,143.35921 C 96.49471,143.35921 94.93964,141.92486 93.4861,141.92486 C 92.03257,141.92486 90.681042,140.49052 89.498567,140.49052 C 88.3161,140.49052 87.303082,139.05617 86.509756,139.05617 C 85.71643,139.05617 85.143075,137.62183 84.818119,137.62183 C 84.493163,137.62183 84.41672,136.18749 84.592584,136.18749 C 84.768448,136.18749 85.196546,134.75315 85.855665,134.75315 C 86.514785,134.75315 87.404689,133.3188 88.481242,133.3188 C 89.557796,133.3188 90.820634,131.88445 92.20712,131.88445 C 93.59362,131.88445 95.10328,130.45011 96.66126,130.45011 C 98.21923,130.45011 99.82498,129.01577 101.39886,129.01577 C 102.97274,129.01577 104.51422,127.58143 105.94685,127.58143 C 107.37947,127.58143 108.70276,126.14708 109.85107,126.14708 C 110.99938,126.14708 111.97233,124.71273 112.72165,124.71273 C 113.47098,124.71273 113.99643,123.27839 114.27195,123.27839 C 114.54747,123.27839 114.57296,121.84404 114.34715,121.84404 C 114.12136,121.84404 113.64433,120.40971 112.93976,120.40971 C 112.23518,120.40971 111.30329,118.97536 110.19029,118.97536 C 109.0773,118.97536 107.78358,117.54101 106.37332,117.54101 C 104.96305,117.54101 103.43671,116.10667 101.86999,116.10667 C 100.30327,116.10667 98.69671,114.67232 97.13,114.67232 C 95.56328,114.67232 94.03694,113.23799 92.62667,113.23799 C 91.216405,113.23799 89.922695,111.80366 88.809698,111.80366 C 87.696709,111.80366 86.764812,110.36931 86.060236,110.36931 C 85.35566,110.36931 84.87864,108.93496 84.652834,108.93496 C 84.427035,108.93496 84.45252,107.50063 84.728041,107.50063 C 85.003561,107.50063 85.529009,106.06629 86.278343,106.06629 C 87.027669,106.06629 88.000615,104.63195 89.148926,104.63195 C 90.297236,104.63195 91.620517,103.19759 93.05314,103.19759 C 94.48576,103.19759 96.02725,101.76325 97.60113,101.76325 C 99.17501,101.76325 100.78077,100.32892 102.33874,100.32892 C 103.8967,100.32892 105.40638,98.89457 106.79287,98.89457 C 108.17935,98.89457 109.4422,97.46023 110.51875,97.46023 C 111.59531,97.46023 112.48521,96.02588 113.14433,96.02588 C 113.80344,96.02588 114.23155,94.59152 114.40741,94.59152 C 114.58327,94.59152 114.50683,93.15718 114.18187,93.15718 C 113.85692,93.15718 113.28356,91.72286 112.49023,91.72286 C 111.69691,91.72286 110.6839,90.28851 109.50142,90.28851 C 108.31895,90.28851 106.96743,88.85416 105.51389,88.85416 C 104.06035,88.85416 102.50528,87.41981 100.92582,87.41981 C 99.34636,87.41981 97.74304,85.98546 96.19537,85.98546 C 94.64771,85.98546 93.15623,84.55113 91.794917,84.55113 C 90.4336,84.55113 89.202911,83.11679 88.163879,83.11679 C 87.124847,83.11679 86.277828,81.68245 85.66483,81.68245 C 85.05184,81.68245 84.673077,80.2481 84.547341,80.2481 C 84.421599,80.2481 84.548913,78.81375 84.922983,78.81375 C 85.297046,78.81375 85.917737,77.37942 86.754255,77.37942 C 87.590774,77.37942 88.642849,75.94507 89.858288,75.94507 C 91.073726,75.94507 92.45213,74.51072 93.92512,74.51072 C 95.39811,74.51072 96.9652,73.07638 98.54864,73.07638 C 100.1321,73.07638 101.73138,71.64203 103.26718,71.64203 C 104.80297,71.64203 106.27475,70.2077 107.60952,70.2077 C 108.94429,70.2077 110.1416,68.77335 111.14207,68.77335 C 112.14253,68.77335 112.94581,67.339 113.51206,67.339 C 114.07831,67.339 114.40735,65.90466 114.48284,65.90466 C 114.55834,65.90466 114.38027,64.47031 113.95747,64.47031 C 113.53467,64.47031 112.86728,63.03596 111.98841,63.03596 C 111.10953,63.03596 110.01947,61.60163 108.77228,61.60163 C 107.52509,61.60163 106.1212,60.16729 104.63024,60.16729 C 103.13929,60.16729 101.56176,58.73293 99.97591,58.73293 C 98.39007,58.73293 96.79643,57.29859 95.27406,57.29859 C 93.75168,57.29859 92.30107,55.86425 90.994191,55.86425 C 89.68731,55.86425 88.524585,54.42992 87.563703,54.42992 C 86.602813,54.42992 85.84408,52.99557 85.325139,52.99557 C 84.806198,52.99557 84.52722,51.56122 84.502049,51.56122 C 84.47687,51.56122 84.705512,50.12688 85.176618,50.12688 C 85.647723,50.12688 86.36115,48.69252 87.281489,48.69252 C 88.201836,48.69252 89.328797,47.2582 90.606471,47.2582 C 91.884152,47.2582 93.31212,45.82386 94.81955,45.82386 C 96.32697,45.82386 97.91335,44.3895 99.5,44.3895"
       style="fill:none;fill-opacity:1;fill-rule:evenodd;stroke:#000000;stroke-width:5;stroke-linecap:round;stroke-linejoin:round;stroke-miterlimit:4;stroke-dasharray:none;stroke-dashoffset:0;stroke-opacity:1" />
    <path
       id="path3593"
       d="M 99,197.58291 L 99,187.1279"
       style="fill:none;fill-opacity:1;fill-rule:evenodd;stroke:#000000;stroke-width:4.99999952;stroke-linecap:round;stroke-linejoin:miter;stroke-miterlimit:4;stroke-dasharray:none;stroke-dashoffset:0;stroke-opacity:1" />
    <g
       id="g2385"
       transform="matrix(1.506135,0,0,0.7832311,-50.462167,0.817996)">
      <path
         sodipodi:nodetypes="ccc"
         id="path3599"
         d="M 100,30 L 100,0 L 140,50"
         style="fill:#000000;fill-opacity:1;fill-rule:evenodd;stroke:none;stroke-width:1px;stroke-linecap:butt;stroke-linejoin:miter;stroke-opacity:1" />
      <path
         sodipodi:nodetypes="ccc"
         id="path2394"
         d="M 100,30 L 100,-4.4408921e-15 L 60,50"
         style="fill:#000000;fill-opacity:1;fill-rule:evenodd;stroke:none;stroke-width:1px;stroke-linecap:butt;stroke-linejoin:miter;stroke-opacity:1" />
    </g>
  </g>
</svg>
